<?xml version="1.0" encoding="utf-8"?>
<!-- Generator: Adobe Illustrator 17.0.0, SVG Export Plug-In . SVG Version: 6.00 Build 0)  -->
<!DOCTYPE svg PUBLIC "-//W3C//DTD SVG 1.1//EN" "http://www.w3.org/Graphics/SVG/1.1/DTD/svg11.dtd">
<svg version="1.1" id="Layer_1" xmlns="http://www.w3.org/2000/svg" xmlns:xlink="http://www.w3.org/1999/xlink" x="0px" y="0px"
	 width="512px" height="512px" viewBox="0 0 512 512" enable-background="new 0 0 512 512" xml:space="preserve">
<g id="mdx">
</g>
<g display="none">
	<g display="inline">
		<g>
			<defs>
				<path id="SVGID_1_" d="M430.451,260.046c0-12.623-1.132-24.76-3.237-36.411H259.56v68.858h95.802
					c-4.126,22.251-16.669,41.105-35.521,53.727v44.665h57.53C411.032,359.894,430.451,314.259,430.451,260.046L430.451,260.046
					L430.451,260.046z"/>
			</defs>
			<clipPath id="SVGID_2_">
				<use xlink:href="#SVGID_1_"  overflow="visible"/>
			</clipPath>
			<rect id="XMLID_10_" x="160.665" y="124.739" clip-path="url(#SVGID_2_)" fill="#3E82F1" width="368.681" height="365.041"/>
		</g>
	</g>
	<g display="inline">
		<g>
			<defs>
				<path id="SVGID_3_" d="M259.56,434.011c48.063,0,88.359-15.94,117.811-43.127l-57.53-44.665
					C303.9,356.9,283.51,363.211,259.56,363.211c-46.364,0-85.608-31.314-99.606-73.39h-59.472v46.122
					C129.774,394.121,189.973,434.011,259.56,434.011L259.56,434.011L259.56,434.011z"/>
			</defs>
			<clipPath id="SVGID_4_">
				<use xlink:href="#SVGID_3_"  overflow="visible"/>
			</clipPath>
			<rect id="XMLID_7_" x="1.588" y="190.927" clip-path="url(#SVGID_4_)" fill="#32A753" width="474.679" height="341.98"/>
		</g>
	</g>
	<g display="inline">
		<g>
			<defs>
				<path id="SVGID_5_" d="M159.955,289.822c-3.561-10.68-5.583-22.089-5.583-33.822c0-11.732,2.023-23.141,5.583-33.822v-46.121
					h-59.472C88.427,200.089,81.549,227.275,81.549,256s6.878,55.912,18.934,79.944L159.955,289.822L159.955,289.822
					L159.955,289.822z"/>
			</defs>
			<clipPath id="SVGID_6_">
				<use xlink:href="#SVGID_5_"  overflow="visible"/>
			</clipPath>
			<rect id="XMLID_4_" x="-17.346" y="77.162" clip-path="url(#SVGID_6_)" fill="#F9BB00" width="276.196" height="357.677"/>
		</g>
	</g>
	<g display="inline">
		<g>
			<defs>
				<path id="SVGID_7_" d="M259.56,148.789c26.135,0,49.6,8.982,68.049,26.621l51.056-51.057
					c-30.828-28.725-71.123-46.364-119.105-46.364c-69.587,0-129.787,39.891-159.077,98.069l59.472,46.121
					C173.952,180.102,213.196,148.789,259.56,148.789L259.56,148.789L259.56,148.789z"/>
			</defs>
			<clipPath id="SVGID_8_">
				<use xlink:href="#SVGID_7_"  overflow="visible"/>
			</clipPath>
			<rect id="XMLID_1_" x="1.588" y="-20.906" clip-path="url(#SVGID_8_)" fill="#E74133" width="475.974" height="341.979"/>
		</g>
	</g>
</g>
<path fill="#1977F3" d="M435.631,256.756c0-98.804-79.272-178.913-177.041-178.913S81.549,157.952,81.549,256.756
	c0,89.293,64.732,163.314,149.381,176.751V308.485h-44.964v-51.73h44.964v-39.426c0-44.836,26.44-69.618,66.872-69.618
	c19.369,0,39.636,3.497,39.636,3.497v44.031h-22.333c-21.983,0-28.855,13.788-28.855,27.952v33.563h49.096l-7.843,51.73h-41.254
	v125.021c84.649-13.412,149.381-87.433,149.381-176.751L435.631,256.756z"/>
<path fill="#FEFEFE" d="M327.505,308.484l7.843-51.73h-49.096v-33.563c0-14.14,6.846-27.952,28.855-27.952h22.333v-44.031
	c0,0-20.265-3.497-39.636-3.497c-40.432,0-66.872,24.758-66.872,69.618v39.426h-44.964v51.73h44.964v125.021
	c9.012,1.432,18.249,2.163,27.66,2.163c9.411,0,18.648-0.755,27.66-2.163V308.485h41.254L327.505,308.484z"/>
</svg>
